<svg id="Layer_1" data-name="Layer 1" xmlns="http://www.w3.org/2000/svg" viewBox="0 0 360 360"><path d="M131.79,309.47l10.86-9.89c1.42-1.27,2.2-2.49,2.2-4,0-1.76-1.22-2.74-3-2.74a3,3,0,0,0-3.08,3.13h-6.85c0-4.74,3.32-9.14,10.07-9.14,6.22,0,10.23,3.22,10.23,8.36,0,4-2.15,6.41-5,8.76l-4.35,3.57h9.58v6.11H131.79Z"/><path d="M154.59,300.61c0-7.63,5.57-13.74,14-13.74s14,6.11,14,13.74-5.58,13.75-14,13.75S154.59,308.24,154.59,300.61Zm21,0a7,7,0,1,0-7,7.19A6.81,6.81,0,0,0,175.62,300.61Z"/><path d="M184.77,309.47l10.86-9.89c1.42-1.27,2.2-2.49,2.2-4,0-1.76-1.22-2.74-3-2.74a3,3,0,0,0-3.08,3.13h-6.85c0-4.74,3.32-9.14,10.07-9.14,6.22,0,10.23,3.22,10.23,8.36,0,4-2.15,6.41-5,8.76l-4.35,3.57h9.58v6.11H184.77Z"/><path d="M208,309.47l10.86-9.89c1.42-1.27,2.2-2.49,2.2-4,0-1.76-1.23-2.74-3-2.74A3,3,0,0,0,215,296H208.1c0-4.74,3.33-9.14,10.08-9.14,6.21,0,10.23,3.22,10.23,8.36,0,4-2.16,6.41-5,8.76l-4.36,3.57h9.59v6.11H208Z"/><circle cx="180" cy="277.67" r="4"/><path d="M180,126a72,72,0,1,0,72,72A72,72,0,0,0,180,126Zm0,136A63.95,63.95,0,1,1,244,198,63.95,63.95,0,0,1,180,261.9Zm-16-59.06a8.81,8.81,0,1,1-8.81-8.82A8.82,8.82,0,0,1,164,202.84Zm49.67,0a8.81,8.81,0,1,1-8.81-8.82A8.81,8.81,0,0,1,213.64,202.84Zm7.94-18.36,8.13-8.84h-18a56.25,56.25,0,0,0-63.33,0H130.29l8.13,8.84A24.84,24.84,0,1,0,172,221.05l8,8.67,8-8.66a24.84,24.84,0,1,0,33.62-36.58Zm-66.42,35.16A16.81,16.81,0,1,1,172,202.84,16.8,16.8,0,0,1,155.16,219.64ZM180,202.35c0-11.06-8.05-20.55-18.66-24.61a48.52,48.52,0,0,1,37.31,0C188,181.8,180,191.29,180,202.35Zm24.83,17.29a16.81,16.81,0,1,1,16.81-16.8A16.81,16.81,0,0,1,204.83,219.64Z"/><path d="M139.93,277.57s-8.72-6.72-24.43-8.57a42.41,42.41,0,0,0-27.19,6.44s10.48,4.32,26.44,5.93S139.93,277.57,139.93,277.57Z"/><path d="M115.49,263.77s-7.85-8.09-22.45-13.66A53.65,53.65,0,0,0,64.27,248s9,8.52,24.54,14.46S115.49,263.77,115.49,263.77Z"/><path d="M92.15,244.61s-4.57-11.17-16.73-22.4A55.24,55.24,0,0,0,48,209s5.51,12.05,18.46,24S92.15,244.61,92.15,244.61Z"/><path d="M87.58,223.18s-1.52-12-10.32-26a54.61,54.61,0,0,0-22.94-19.8s2.2,13.11,11.57,28S87.58,223.18,87.58,223.18Z"/><path d="M88.15,194.47s-.42-12.31-7.8-27.29A54.55,54.55,0,0,0,59.61,145s1,13.47,8.86,29.44S88.15,194.47,88.15,194.47Z"/><path d="M123,255.62s-3.65-9.16-13.5-18.41a45.06,45.06,0,0,0-22.29-11A69.1,69.1,0,0,0,102.16,246C112.65,255.84,123,255.62,123,255.62Z"/><path d="M147.88,269.26a45.74,45.74,0,0,0-14.31-8.53,35.72,35.72,0,0,0-18-1.86,55.24,55.24,0,0,0,15.63,9.06C141,271.76,147.88,269.26,147.88,269.26Z"/><path d="M172,274.16a34.31,34.31,0,0,0-13.13-1.91,26.93,26.93,0,0,0-13.69,4.55,41.1,41.1,0,0,0,14.25,1.87C167.81,278.39,172,274.16,172,274.16Z"/><path d="M112.16,233.48s-1.7-9.75-9.43-20.84a44.6,44.6,0,0,0-19.49-15.26A69.5,69.5,0,0,0,93.78,219.8C102,231.61,112.16,233.48,112.16,233.48Z"/><path d="M102.45,203.77s1.89-9.88-1.29-23.15a44.62,44.62,0,0,0-12.51-21.38,72.1,72.1,0,0,0,1.74,25C93.77,198.42,102.45,203.77,102.45,203.77Z"/><path d="M220.07,277.57s8.72-6.72,24.43-8.57a42.41,42.41,0,0,1,27.19,6.44s-10.48,4.32-26.44,5.93S220.07,277.57,220.07,277.57Z"/><path d="M244.51,263.77s7.85-8.09,22.45-13.66A53.65,53.65,0,0,1,295.73,248s-9,8.52-24.54,14.46S244.51,263.77,244.51,263.77Z"/><path d="M267.85,244.61s4.57-11.17,16.73-22.4A55.24,55.24,0,0,1,312,209s-5.51,12.05-18.46,24S267.85,244.61,267.85,244.61Z"/><path d="M272.42,223.18s1.52-12,10.32-26a54.61,54.61,0,0,1,22.94-19.8s-2.2,13.11-11.57,28S272.42,223.18,272.42,223.18Z"/><path d="M271.85,194.47s.42-12.31,7.8-27.29A54.55,54.55,0,0,1,300.39,145s-1,13.47-8.86,29.44S271.85,194.47,271.85,194.47Z"/><path d="M237,255.62s3.65-9.16,13.5-18.41a45.06,45.06,0,0,1,22.29-11A69.1,69.1,0,0,1,257.84,246C247.35,255.84,237,255.62,237,255.62Z"/><path d="M212.12,269.26a45.74,45.74,0,0,1,14.31-8.53,35.72,35.72,0,0,1,18-1.86,55.24,55.24,0,0,1-15.63,9.06C219,271.76,212.12,269.26,212.12,269.26Z"/><path d="M188,274.16a34.31,34.31,0,0,1,13.13-1.91,26.93,26.93,0,0,1,13.69,4.55,41.1,41.1,0,0,1-14.25,1.87C192.19,278.39,188,274.16,188,274.16Z"/><path d="M247.84,233.48s1.7-9.75,9.43-20.84a44.6,44.6,0,0,1,19.49-15.26,69.5,69.5,0,0,1-10.54,22.42C258,231.61,247.84,233.48,247.84,233.48Z"/><path d="M257.55,203.77s-1.89-9.88,1.29-23.15a44.62,44.62,0,0,1,12.51-21.38,72.1,72.1,0,0,1-1.74,25C266.23,198.42,257.55,203.77,257.55,203.77Z"/><path d="M100.3,46.08H91V73.67H83.72V46.08H74.37V39.43H100.3Z"/><path d="M113.07,49.51V56h-3.62c-2.64,0-3.91,1.28-3.91,3.92V73.67H98.69V49.51h6.36V54a4.88,4.88,0,0,1,5-4.5Z"/><path d="M113.8,61.59c0-7.09,5-12.77,12-12.77,3.43,0,6,1.08,7.59,2.74V49.51h6.35V73.67h-6.35V70.74c-1.57,2.1-3.87,3.62-7.78,3.62C118.79,74.36,113.8,68.68,113.8,61.59Zm19.57,0A6.36,6.36,0,1,0,127,68,6.18,6.18,0,0,0,133.37,61.59Z"/><path d="M142.41,49.51h7.34l3.67,12.76c.44,1.47.69,2.45.93,3.58.25-1.13.49-2.11.93-3.58L159,49.51h7.34l-8,24.16h-7.82Z"/><path d="M190.76,63.2H172.81a5.74,5.74,0,0,0,5.77,5.48c2.79,0,4.84-1.47,5.43-3.67h6.56c-1.18,5.92-5.53,9.35-12,9.35C171,74.36,166,68.78,166,61.59a12.42,12.42,0,0,1,12.52-12.77c7.63,0,12.23,4.65,12.23,13.31Zm-17.61-5.13h11.2c-.68-2.4-2.59-4-5.72-4A5.74,5.74,0,0,0,173.15,58.07Z"/><path d="M193.79,39.43h6.85V73.67h-6.85Z"/><path d="M204.67,39.43h6.85V73.67h-6.85Z"/><path d="M239,63.2h-18a5.75,5.75,0,0,0,5.78,5.48c2.79,0,4.84-1.47,5.43-3.67h6.55c-1.17,5.92-5.52,9.35-12,9.35-7.58,0-12.57-5.58-12.57-12.77a12.42,12.42,0,0,1,12.52-12.77c7.63,0,12.23,4.65,12.23,13.31Zm-17.61-5.13h11.2c-.68-2.4-2.59-4-5.72-4A5.74,5.74,0,0,0,221.43,58.07Z"/><path d="M256.48,49.51V56h-3.62c-2.64,0-3.91,1.28-3.91,3.92V73.67H242.1V49.51h6.36V54a4.89,4.89,0,0,1,5-4.5Z"/><path d="M258.34,65.75h6.94A2.57,2.57,0,0,0,268,68.54c1.62,0,2.6-.79,2.6-2s-1.08-2-3.28-2.69l-3.18-.93c-3.18-.93-5.38-3.18-5.38-6.7,0-4.45,4-7.39,9-7.39,5.67,0,8.81,3.23,8.81,7.73h-6.46a2.32,2.32,0,0,0-2.4-2.3c-1.37,0-2.3.79-2.3,1.71,0,1.13.88,1.67,2.79,2.21l3.52,1c3.23.88,5.48,3.09,5.48,6.71,0,4.54-3.57,8.51-9.29,8.51C262.59,74.36,258.34,71.08,258.34,65.75Z"/><path d="M279.71,50.53h.64c1.66,0,3.18-.88,3.47-3.37a2.1,2.1,0,0,1-1,.19,4.18,4.18,0,0,1-4.26-4.3,4.28,4.28,0,0,1,4.3-4.31c3.09,0,4.8,2.84,4.8,6.56,0,6-2.89,8.76-6.95,8.76h-1Z"/><path d="M105.21,100.55c0-10.52,7.83-17.81,17.27-17.81,9.2,0,15,5.09,16.29,13.21h-7.39c-1.07-4-4.3-6.45-8.9-6.45-5.53,0-10,4.5-10,11s4.5,11.06,10,11.06c4.55,0,7.83-2.35,8.9-6.51h7.54c-1.47,8.22-7.93,13.26-16.44,13.26C112.89,118.36,105.21,111.07,105.21,100.55Z"/><path d="M141.84,83.43h6.85V96.78c1.08-2,3.82-4,7.68-4,4.8,0,8.17,3.38,8.17,8.9v16h-6.85v-14a4.51,4.51,0,1,0-9,0v14h-6.85Z"/><path d="M167.18,105.59c0-7.09,5.19-12.77,13.07-12.77s13.06,5.68,13.06,12.77-5.19,12.77-13.06,12.77S167.18,112.68,167.18,105.59Zm19.28,0a6.22,6.22,0,1,0-6.21,6.41A6.06,6.06,0,0,0,186.46,105.59Z"/><path d="M195,86.12a4.31,4.31,0,1,1,4.31,4.3A4.29,4.29,0,0,1,195,86.12Zm.88,7.39h6.85v24.16H195.9Z"/><path d="M205.41,105.59a12.39,12.39,0,0,1,12.77-12.77c7.63,0,11.74,4.06,12.48,9.74h-7.15c-.68-2-2.39-3.38-5.33-3.38a6.43,6.43,0,0,0,0,12.82c2.89,0,4.55-1.27,5.33-3.38h7.15c-1.13,5.92-5.09,9.74-12.48,9.74A12.39,12.39,0,0,1,205.41,105.59Z"/><path d="M256.6,107.2h-18a5.74,5.74,0,0,0,5.77,5.48c2.79,0,4.85-1.47,5.43-3.67h6.56c-1.18,5.92-5.53,9.35-12,9.35-7.58,0-12.57-5.58-12.57-12.77a12.42,12.42,0,0,1,12.52-12.77c7.63,0,12.23,4.65,12.23,13.31ZM239,102.07h11.2c-.68-2.4-2.59-4-5.72-4A5.75,5.75,0,0,0,239,102.07Z"/><polygon points="254.75 85.35 258.83 85.35 258.83 86.22 257.27 86.22 257.27 90.83 256.32 90.83 256.32 86.22 254.75 86.22 254.75 85.35"/><path d="M262.25,89.46l-1.48-4.11h-1.14v5.48h.91V87.77a7.73,7.73,0,0,0-.05-.84l1.42,3.9h.69l1.41-3.9a7.73,7.73,0,0,0-.05.84v3.06h.91V85.35h-1.14Z"/></svg>